<?xml version="1.0" encoding="utf-8"?>
<!-- Generator: Adobe Illustrator 22.0.1, SVG Export Plug-In . SVG Version: 6.00 Build 0)  -->
<svg version="1.0" id="ÉåÉCÉÑÅ_x5B__x5F_1" xmlns="http://www.w3.org/2000/svg" xmlns:xlink="http://www.w3.org/1999/xlink"
	 x="0px" y="0px" viewBox="0 0 510.3 433.5" enable-background="new 0 0 510.3 433.5" xml:space="preserve">
<g>
	<path fill="#D7A862" d="M510.3,203.5c0,63.3-114.2,114.5-255.1,114.5C114.2,318,0,266.8,0,203.5C0,140.3,114.2,89,255.1,89
		C396.1,89,510.3,140.3,510.3,203.5z"/>
	<path fill="#F1C87E" d="M510.3,199c0,63.3-114.2,114.5-255.1,114.5C114.2,313.6,0,262.3,0,199C0,135.8,114.2,84.5,255.1,84.5
		C396.1,84.5,510.3,135.8,510.3,199z"/>
	<path fill="#D7A862" d="M460.7,190.8c0,49.4-92,89.4-205.6,89.4c-113.5,0-205.5-40-205.5-89.4c0-49.3,92-89.4,205.5-89.4
		C368.7,101.5,460.7,141.5,460.7,190.8z"/>
	<linearGradient id="SVGID_1_" gradientUnits="userSpaceOnUse" x1="64.219" y1="100.9425" x2="471.4398" y2="100.9425">
		<stop  offset="0" style="stop-color:#300000"/>
		<stop  offset="1" style="stop-color:#692215"/>
	</linearGradient>
	<path fill="url(#SVGID_1_)" d="M211.2,54.4c-80.4,41.1-147,87-147,87l394.9,60.6c0,0,70.1-171.4-124-201.9
		C335.1,0,291.6,13.3,211.2,54.4z"/>
	<g>
		<path fill="#FFFF66" d="M61.1,141.7c0.3,3.7,0.1,3.7,0.5,7.4c0.3,3.7-0.6,3.8-0.3,7.5c0.3,3.7,2,3.6,2.3,7.2
			c0.3,3.7-1.7,3.9-1.4,7.5s0.8,3.7,1.1,7.3c0.3,3.7-0.2,3.7,0.1,7.4c0.3,3.7,1.9,3.6,2.2,7.3c0.3,3.7,0.6,3.7,0.9,7.4
			c0.3,3.7-1.1,3.8-0.8,7.5c0.3,3.7,0.4,3.7,0.7,7.4s1.6,3.6,1.9,7.3c0.3,3.7,0.7,3.7,1,7.4c0.3,3.7-0.4,3.7-0.1,7.4
			c0.3,3.7-0.9,3.8-0.6,7.5c0.3,3.7,1.6,3.6,1.9,7.3c0.3,3.7-3.5,5.9-0.7,8.3c2.8,2.3,4.1-2.4,7.6-2.9c3.5-0.5,3.7,0.9,7.3,0.4
			c3.5-0.5,3.4-1.5,6.9-2.1c3.5-0.5,3.5-0.6,7.1-1.1c3.5-0.5,3.7,0.9,7.3,0.4c3.5-0.5,3.4-1.3,6.9-1.9c3.5-0.5,3.4-1.3,6.9-1.9
			c3.5-0.5,3.6,0,7.1-0.6c3.5-0.5,3.6-0.1,7.1-0.6c3.5-0.5,3.5-0.7,7-1.2c3.5-0.5,3.7,0.4,7.2-0.1c3.5-0.5,3.3-1.9,6.9-2.4
			c3.5-0.5,3.5-0.5,7.1-1c3.5-0.5,3.7,0.6,7.2,0.1c3.5-0.5,3.6-0.3,7.1-0.8c3.5-0.5,3.5-1,7-1.6c3.5-0.5,3.3-2.3,6.8-2.8
			c3.5-0.5,3.9,1.8,7.4,1.3c3.5-0.5,3.4-1.2,7-1.7c3.5-0.5,3.6,0,7.1-0.5c3.5-0.5,3.4-1.2,7-1.8c3.5-0.5,3.5-1,7-1.5
			c3.5-0.5,3.5-0.9,7-1.4c3.5-0.5,3.7,0.7,7.2,0.2c3.5-0.5,3.3-2.2,6.8-2.7c3.5-0.5,3.5-0.6,7-1.2c3.5-0.5,3.8,1.6,7.4,1
			c3.5-0.5,3.5-0.7,7-1.2c3.5-0.5,3.3-2.4,6.8-2.9c3.5-0.5,3.6,0.1,7.2-0.5c3.5-0.5,3.7,0.8,7.3,0.3c3.5-0.5,3.6-0.4,7.1-0.9
			c3.5-0.5,3.3-2.4,6.8-2.9c3.5-0.5,3.6-0.2,7.1-0.8c3.5-0.5,3.6,0.1,7.2-0.4c3.5-0.5,3.5-0.6,7-1.2c3.5-0.5,3.4-1.7,6.9-2.3
			c3.5-0.5,3.8,1.3,7.3,0.8c3.5-0.5,3.3-2,6.8-2.5c3.5-0.5,3.6,0.2,7.2-0.3c3.5-0.5,3.6,0.2,7.2-0.3c3.5-0.5,3.5-0.9,7-1.4
			c3.5-0.5,3.5-0.5,7.1-1c3.5-0.5,3.3-2.1,6.8-2.6c3.5-0.5,3.6,0,7.2-0.5c3.5-0.5,3.6,0.1,7.2-0.5c3.5-0.5,3.5-1,7-1.5
			c3.5-0.5,3.6,0,7.1-0.5c3.5-0.5,3.4-1.3,6.9-1.8c3.5-0.5,3.6,0.1,7.2-0.4c3.5-0.5,3.4-1.5,6.9-2c3.5-0.5,3.5-0.5,7.1-1
			c3.5-0.5,3.9,1.7,7.4,1.1c3.5-0.5,3.3-2.1,6.8-2.6c3.5-0.5,4.1,1.4,7.4-0.1c3.3-1.5,0.3-3.2,1.7-7.5c0.6-2,0.6-4.4,1.3-7.1
			c0.6-2.1,2.1-4.2,2.7-6.8c0.5-2.2,1.5-4.5,2-7c0.4-2.3-0.5-4.9-0.1-7.3c0.3-2.3,1-4.6,1.2-7.1c0.2-2.4,0.1-4.8,0.2-7.2
			c0.1-2.4,1.9-4.8,1.9-7.2c0-2.4-0.6-4.8-0.7-7.2c-0.1-2.4-1.1-4.7-1.4-7.1c-0.3-2.4-1.1-4.7-1.5-7c-0.4-2.4,0.7-5.1,0.1-7.4
			c-0.6-2.3-3.2-4.1-3.9-6.4c-0.8-2.3,0.3-5.3-0.7-7.5c-1-2.2-2.7-4.1-3.9-6.2c-1.1-2.1-2.2-4.3-3.6-6.3c-1.3-2-3.8-2.9-5.6-4.6
			c-1.7-1.5-3.7-2.5-5.9-3.8c-2-1.2-3.2-3.8-5.5-4.8c-2.1-0.9-4.7-0.9-7-1.6c-2.2-0.7-4.3-2-6.7-2.5c-2.3-0.5-4.8,0.5-7.3,0.2
			c-2.3-0.4-4.6-0.8-7-1.1c-2.3-0.2-4.6-1.5-7-1.6c-2.3-0.1-4.7,0.7-7.2,0.7c-2.3-0.1-4.7-0.7-7.1-0.7c-2.3,0-4.7,0.7-7.1,0.7
			c-2.3,0.1-4.8-1-7.2-0.8c-2.3,0.1-4.7,0.7-7.1,0.9c-2.3,0.1-4.7,0.7-7.1,0.9c-2.3,0.2-4.9-1.2-7.3-1c-2.3,0.2-4.5,2.4-6.9,2.7
			c-2.3,0.3-4.9-1.2-7.3-0.9c-2.3,0.3-4.7,0.7-7.1,1c-2.3,0.3-4.7,1-7,1.4c-2.3,0.3-4.5,1.8-6.9,2.1c-2.3,0.4-4.9-0.4-7.2,0
			c-2.3,0.4-4.8,0.4-7.1,0.8c-2.3,0.4-4.6,1.4-6.9,1.8c-2.3,0.4-4.7,0.9-7,1.3c-2.3,0.4-4.8,0.2-7.2,0.6c-2.3,0.5-4.6,1.5-6.9,2
			c-2.3,0.5-4.8,0.5-7.1,1c-2.3,0.5-4.3,2.8-6.6,3.3c-2.3,0.5-5.2-1.3-7.5-0.8c-2.3,0.5-4.3,2.5-6.7,3c-2.3,0.5-4.9,0.1-7.2,0.7
			c-2.3,0.5-4.4,1.9-6.8,2.5c-2.3,0.5-4.7,1-7,1.6c-2.3,0.6-4.8,0.6-7.1,1.1c-2.3,0.6-4.7,0.8-7,1.4c-2.3,0.6-4.7,1.1-7,1.6
			c-2.3,0.6-4.5,1.7-6.8,2.3c-2.3,0.6-4.6,1.4-6.9,2c-2.3,0.6-4.9,0.2-7.2,0.8c-2.3,0.6-4.5,1.8-6.8,2.4c-2.3,0.6-4.6,1.5-6.8,2.1
			c-2.3,0.6-4.3,2.3-6.6,2.9c-2.3,0.6-4.6,1.4-6.9,2c-2.3,0.6-4.9,0.2-7.2,0.8c-2.3,0.7-4.9,0.5-7.1,1.1c-2.3,0.7-4.3,2.4-6.6,3
			c-2.3,0.7-4.4,1.9-6.7,2.6c-2.3,0.7-4.6,1.6-6.8,2.2c-2.3,0.7-5.1-0.3-7.4,0.4c-2.3,0.7-4.5,1.9-6.7,2.5c-2.3,0.7-4.6,1.6-6.8,2.3
			c-2.4,0.7-4.9,0.5-7.1,1.2c-2.4,0.7-4.6,1.7-6.7,2.4c-2.4,0.8-4.7,1.6-6.8,2.3c-2.5,0.8-4.4,2.7-6.4,3.4c-2.6,0.8-4.9,1.5-6.8,2.1
			C63.3,141.4,61.1,141.7,61.1,141.7z"/>
	</g>
	<path fill="#BE894A" d="M58.4,430.3c0,0-10.7,7.1-15-0.1c-6.6-11.2,4-17.3,4-17.3c133.2-78.6,162.3-95.8,185.6-116.3
		c23.7-37.1,116.7-112.7,120.8-108.7c4,4.1-59.5,59.6-66,68.1c0,0-3.1,6.5,3.8,3.2c0,0,67.8-65.1,71.2-61.6
		c3.5,3.5-63.1,68.4-64.3,71.8c-1,2.9,1.1,3.5,3.7,2.4c6.5-2.9,64.8-70.6,69.6-65.8c4.8,4.8-49.2,64-61.2,73.5
		c-17.6,13.9-18.4,16.6-69,35.3C229,319.3,72.6,421.3,58.4,430.3z"/>
	<path fill="#FFE649" d="M168.5,146c0.5,2.7-7.9,6.3-18.7,8.2c-10.8,1.9-19.9,1.3-20.4-1.4c-0.5-2.7,7.9-6.3,18.7-8.2
		C158.9,142.7,168,143.4,168.5,146z"/>
	<path fill="#FFE649" d="M251.8,133c0.5,2.7-7.9,6.3-18.7,8.2c-10.8,1.9-19.9,1.3-20.4-1.4c-0.5-2.7,7.9-6.3,18.7-8.2
		C242.2,129.7,251.3,130.3,251.8,133z"/>
	<path fill="#FFE649" d="M368.2,143.4c0.4,2.7-7.9,6.3-18.7,8.2c-10.8,1.9-19.9,1.3-20.4-1.4c-0.5-2.7,7.9-6.3,18.7-8.2
		C358.6,140.1,367.7,140.8,368.2,143.4z"/>
	<path fill="#FFE649" d="M273.9,172.7c0.5,2.7-7.9,6.3-18.7,8.2c-10.8,1.9-19.9,1.3-20.4-1.4c-0.5-2.7,7.9-6.3,18.7-8.2
		C264.3,169.4,273.4,170,273.9,172.7z"/>
	<path fill="#FFE649" d="M332.8,171.7c0.5,2.7-7.9,6.3-18.7,8.2c-10.8,1.9-19.9,1.3-20.4-1.4c-0.5-2.7,7.9-6.3,18.7-8.2
		C323.1,168.4,332.3,169,332.8,171.7z"/>
	<path fill="#FFE649" d="M174,212c0.5,2.7-7.9,6.3-18.7,8.2c-10.8,1.9-19.9,1.3-20.4-1.4c-0.5-2.7,7.9-6.3,18.7-8.2
		C164.5,208.8,173.6,209.4,174,212z"/>
	<path fill="#FFE649" d="M412.1,188c0.5,2.7-7.9,6.3-18.7,8.2c-10.8,1.9-19.9,1.3-20.4-1.4c-0.5-2.7,7.9-6.3,18.7-8.2
		C402.5,184.7,411.6,185.3,412.1,188z"/>
	<path fill="#FFE649" d="M286.6,208.1c0.5,2.7-7.9,6.3-18.7,8.2c-10.8,1.9-19.9,1.3-20.4-1.4c-0.4-2.7,7.9-6.3,18.7-8.2
		C277,204.9,286.1,205.5,286.6,208.1z"/>
	<path fill="#FFE649" d="M408.9,101.7c0.5,2.7-7.9,6.3-18.7,8.2c-10.8,1.9-19.9,1.3-20.4-1.4c-0.5-2.7,7.9-6.3,18.7-8.2
		C399.4,98.5,408.5,99.1,408.9,101.7z"/>
	<path fill="#FFE649" d="M445.6,141.7c0.5,2.7-7.9,6.3-18.7,8.2c-10.8,1.9-19.9,1.3-20.4-1.4c-0.5-2.7,7.9-6.3,18.7-8.2
		C436,138.5,445.2,139.1,445.6,141.7z"/>
</g>
</svg>
